<mxfile host="app.diagrams.net" modified="2021-04-21T01:37:54.016Z" agent="5.0 (Macintosh; Intel Mac OS X 11_1_0) AppleWebKit/537.36 (KHTML, like Gecko) Chrome/89.0.4389.90 Safari/537.36" etag="Sz7xChM4N-oHMePBkqFA" version="14.6.3" type="github">
  <diagram id="mSy1AuAVxe22ZnLyFNmL" name="第 1 页">
    <mxGraphModel dx="1412" dy="755" grid="1" gridSize="10" guides="1" tooltips="1" connect="1" arrows="1" fold="1" page="1" pageScale="1" pageWidth="827" pageHeight="1169" math="0" shadow="0">
      <root>
        <mxCell id="0" />
        <mxCell id="1" parent="0" />
        <mxCell id="uBkenq1J7Bc0aekrVSAU-7" value="订阅/发布" style="edgeStyle=orthogonalEdgeStyle;rounded=0;orthogonalLoop=1;jettySize=auto;html=1;exitX=0.5;exitY=0;exitDx=0;exitDy=0;entryX=0.5;entryY=1;entryDx=0;entryDy=0;startArrow=classic;startFill=1;" edge="1" parent="1" source="uBkenq1J7Bc0aekrVSAU-1" target="uBkenq1J7Bc0aekrVSAU-2">
          <mxGeometry relative="1" as="geometry" />
        </mxCell>
        <mxCell id="uBkenq1J7Bc0aekrVSAU-1" value="网关" style="rounded=0;whiteSpace=wrap;html=1;" vertex="1" parent="1">
          <mxGeometry x="294" y="520" width="120" height="60" as="geometry" />
        </mxCell>
        <mxCell id="uBkenq1J7Bc0aekrVSAU-9" style="edgeStyle=orthogonalEdgeStyle;rounded=0;orthogonalLoop=1;jettySize=auto;html=1;exitX=0.5;exitY=0;exitDx=0;exitDy=0;entryX=0.5;entryY=1;entryDx=0;entryDy=0;startArrow=classic;startFill=1;" edge="1" parent="1" source="uBkenq1J7Bc0aekrVSAU-2" target="uBkenq1J7Bc0aekrVSAU-8">
          <mxGeometry relative="1" as="geometry" />
        </mxCell>
        <mxCell id="uBkenq1J7Bc0aekrVSAU-10" value="订阅/发布" style="edgeLabel;html=1;align=center;verticalAlign=middle;resizable=0;points=[];" vertex="1" connectable="0" parent="uBkenq1J7Bc0aekrVSAU-9">
          <mxGeometry x="0.1077" y="2" relative="1" as="geometry">
            <mxPoint as="offset" />
          </mxGeometry>
        </mxCell>
        <mxCell id="uBkenq1J7Bc0aekrVSAU-2" value="MQTT broker" style="rounded=0;whiteSpace=wrap;html=1;" vertex="1" parent="1">
          <mxGeometry x="294" y="310" width="120" height="60" as="geometry" />
        </mxCell>
        <mxCell id="uBkenq1J7Bc0aekrVSAU-8" value="java后端" style="rounded=0;whiteSpace=wrap;html=1;" vertex="1" parent="1">
          <mxGeometry x="294" y="120" width="120" height="60" as="geometry" />
        </mxCell>
        <mxCell id="uBkenq1J7Bc0aekrVSAU-12" style="edgeStyle=orthogonalEdgeStyle;rounded=0;orthogonalLoop=1;jettySize=auto;html=1;exitX=0.5;exitY=1;exitDx=0;exitDy=0;entryX=0;entryY=0.5;entryDx=0;entryDy=0;startArrow=classic;startFill=1;" edge="1" parent="1" source="uBkenq1J7Bc0aekrVSAU-11" target="uBkenq1J7Bc0aekrVSAU-2">
          <mxGeometry relative="1" as="geometry" />
        </mxCell>
        <mxCell id="uBkenq1J7Bc0aekrVSAU-13" value="订阅/发布" style="edgeLabel;html=1;align=center;verticalAlign=middle;resizable=0;points=[];" vertex="1" connectable="0" parent="uBkenq1J7Bc0aekrVSAU-12">
          <mxGeometry x="0.2575" y="1" relative="1" as="geometry">
            <mxPoint as="offset" />
          </mxGeometry>
        </mxCell>
        <mxCell id="uBkenq1J7Bc0aekrVSAU-11" value="web前端" style="rounded=0;whiteSpace=wrap;html=1;" vertex="1" parent="1">
          <mxGeometry x="60" y="120" width="120" height="60" as="geometry" />
        </mxCell>
        <mxCell id="uBkenq1J7Bc0aekrVSAU-15" value="订阅发布" style="edgeStyle=orthogonalEdgeStyle;rounded=0;orthogonalLoop=1;jettySize=auto;html=1;exitX=0;exitY=0.5;exitDx=0;exitDy=0;entryX=1;entryY=0.5;entryDx=0;entryDy=0;startArrow=classic;startFill=1;" edge="1" parent="1" source="uBkenq1J7Bc0aekrVSAU-14" target="uBkenq1J7Bc0aekrVSAU-2">
          <mxGeometry relative="1" as="geometry" />
        </mxCell>
        <mxCell id="uBkenq1J7Bc0aekrVSAU-14" value="着色服务" style="rounded=0;whiteSpace=wrap;html=1;" vertex="1" parent="1">
          <mxGeometry x="570" y="310" width="120" height="60" as="geometry" />
        </mxCell>
      </root>
    </mxGraphModel>
  </diagram>
</mxfile>
